<?xml version="1.0" encoding="UTF-8" standalone="no"?>
<svg width="398px" height="56px" viewBox="0 0 398 56" version="1.1" xmlns="http://www.w3.org/2000/svg" xmlns:xlink="http://www.w3.org/1999/xlink">
    <!-- Generator: Sketch 3.6.1 (26313) - http://www.bohemiancoding.com/sketch -->
    <title>MoonClerk Logo</title>
    <desc>Picture of the MoonClerk logo</desc>
    <defs>
        <path id="path-1" d="M30.523,56 L0.06,56 L0.06,0.217 L30.523,0.217 L60.986,0.217 L60.986,56 L30.523,56 L30.523,56 Z"></path>
    </defs>
    <g id="Page-1" stroke="none" stroke-width="1" fill="none" fill-rule="evenodd">
        <g id="MoonClerk-Logo-Color">
            <g id="Group-3">
                <mask id="mask-2" fill="white">
                    <use xlink:href="#path-1"></use>
                </mask>
                <g id="Clip-2"></g>
                <path d="M48.845,10.972 L48.706,10.972 L30.458,56 L12.28,10.972 L12.142,10.972 L3.191,54.266 L0,54.266 L11.24,0.217 L30.458,47.813 L49.747,0.217 L60.986,54.266 L57.795,54.266 L48.845,10.972" id="Fill-1" fill="#353A3F" mask="url(#mask-2)"></path>
            </g>
            <path d="M64.667,28.109 C64.667,41.014 75.421,51.837 88.465,51.837 C101.44,51.837 112.263,40.944 112.263,28.109 C112.263,15.204 101.44,4.38 88.465,4.38 C75.421,4.38 64.667,15.204 64.667,28.109 L64.667,28.109 Z M115.594,28.109 C115.594,42.818 103.174,54.959 88.465,54.959 C73.756,54.959 61.337,42.818 61.337,28.109 C61.337,13.4 73.687,1.258 88.465,1.258 C103.174,1.258 115.594,13.4 115.594,28.109 L115.594,28.109 Z" id="Fill-4" fill="#353A3F"></path>
            <path d="M98.943,28.109 C98.943,41.014 109.697,51.837 122.741,51.837 C135.716,51.837 146.539,40.944 146.539,28.109 C146.539,15.204 135.716,4.38 122.741,4.38 C109.697,4.38 98.943,15.204 98.943,28.109 L98.943,28.109 Z M149.87,28.109 C149.87,42.818 137.45,54.959 122.741,54.959 C108.032,54.959 95.613,42.818 95.613,28.109 C95.613,13.4 107.963,1.258 122.741,1.258 C137.45,1.258 149.87,13.4 149.87,28.109 L149.87,28.109 Z" id="Fill-5" fill="#353A3F"></path>
            <path d="M201.076,56 L157.158,9.306 L157.158,54.266 L153.828,54.266 L153.828,1.258 L197.746,47.605 L197.746,1.952 L201.076,1.952 L201.076,56" id="Fill-6" fill="#353A3F"></path>
            <path d="M265.675,12.637 C261.651,7.71 254.574,4.38 248.122,4.38 C235.078,4.38 224.324,15.62 224.324,28.456 C224.324,34.561 226.96,40.32 231.332,44.622 C235.703,48.785 241.947,51.837 248.122,51.837 C254.158,51.837 261.79,48.576 265.675,43.858 L265.675,48.438 C260.75,52.531 254.712,54.959 248.26,54.959 C233.69,54.959 220.994,42.818 220.994,28.178 C220.994,13.331 233.482,1.258 248.33,1.258 C254.643,1.258 261.027,3.756 265.675,8.058 L265.675,12.637" id="Fill-7" fill="#ACAF9A"></path>
            <path d="M277.334,51.144 L290.656,51.144 L290.656,54.266 L274.004,54.266 L274.004,1.952 L277.334,1.952 L277.334,51.144" id="Fill-8" fill="#ACAF9A"></path>
            <path d="M300.024,5.074 L300.024,24.085 L321.116,24.085 L321.116,27.207 L300.024,27.207 L300.024,51.144 L321.671,51.144 L321.671,54.266 L296.694,54.266 L296.694,1.952 L321.671,1.952 L321.671,5.074 L300.024,5.074" id="Fill-9" fill="#ACAF9A"></path>
            <path d="M338.047,26.374 C341.308,26.374 344.569,26.235 347.206,23.946 C349.704,21.934 350.883,18.812 350.883,15.689 C350.883,11.804 349.079,7.918 345.333,6.253 C342.557,4.935 339.019,5.074 335.966,5.074 L333.815,5.074 L333.815,26.374 L338.047,26.374 L338.047,26.374 Z M356.364,54.266 L352.548,54.266 L335.48,29.497 L333.815,29.497 L333.815,54.266 L330.485,54.266 L330.485,1.952 L337.006,1.952 C341.239,1.952 345.402,2.021 348.94,4.588 C352.687,7.225 354.213,11.388 354.213,15.828 C354.213,24.917 347.9,29.635 339.227,29.497 L356.364,54.266 L356.364,54.266 Z" id="Fill-10" fill="#ACAF9A"></path>
            <path d="M391.125,1.952 L395.566,1.952 L369.964,27.137 L397.162,54.266 L392.791,54.266 L367.674,29.288 L366.287,30.676 L366.287,54.266 L362.957,54.266 L362.957,1.952 L366.287,1.952 L366.287,26.374 L391.125,1.952" id="Fill-11" fill="#ACAF9A"></path>
        </g>
    </g>
</svg>
